<svg xmlns="http://www.w3.org/2000/svg" viewBox="0 0 1280 720" font-family="'Segoe UI','Microsoft YaHei',Arial,sans-serif">
  <defs>
    <linearGradient id="bg" x1="0" y1="0" x2="0" y2="1"><stop offset="0" stop-color="#0B1220"/><stop offset="1" stop-color="#111C2F"/></linearGradient>
    <filter id="shadow" x="-8%" y="-8%" width="116%" height="116%"><feDropShadow dx="0" dy="8" stdDeviation="10" flood-color="#020617" flood-opacity="0.22"/></filter>
    <marker id="arrow" viewBox="0 0 10 10" refX="9" refY="5" markerWidth="8" markerHeight="8" orient="auto"><path d="M0,0 L10,5 L0,10 z" fill="#94A3B8"/></marker>
    <marker id="arrowBlue" viewBox="0 0 10 10" refX="9" refY="5" markerWidth="8" markerHeight="8" orient="auto"><path d="M0,0 L10,5 L0,10 z" fill="#3B82F6"/></marker>
    <marker id="arrowGreen" viewBox="0 0 10 10" refX="9" refY="5" markerWidth="8" markerHeight="8" orient="auto"><path d="M0,0 L10,5 L0,10 z" fill="#10B981"/></marker>
    <marker id="arrowRed" viewBox="0 0 10 10" refX="9" refY="5" markerWidth="8" markerHeight="8" orient="auto"><path d="M0,0 L10,5 L0,10 z" fill="#EF4444"/></marker>
    <style>
      .title{fill:#F8FAFC;font-size:30px;font-weight:800;letter-spacing:0}
      .sub{fill:#A8B3C7;font-size:14px}
      .section{fill:#F8FAFC;font-size:16px;font-weight:800}
      .label{fill:#F8FAFC;font-size:14px;font-weight:750}
      .small{fill:#B9C5D8;font-size:12px}
      .tiny{fill:#9DAAC0;font-size:11px}
      .code{fill:#C7D2FE;font-size:11px;font-family:'Cascadia Mono','Consolas',monospace}
    </style>
  </defs>
  <rect width="1280" height="720" rx="18" fill="url(#bg)"/>
  <text class="title" x="640" y="44" text-anchor="middle">Academic Data Agent 总体架构</text>
  <text class="sub" x="640" y="70" text-anchor="middle">面向科研表格分析的可信数据分析智能体系统</text>
<rect x="70" y="92" width="1140" height="76" rx="14" fill="#151F33" stroke="#3B82F6" stroke-opacity="0.45" filter="url(#shadow)"/>
<rect x="70" y="92" width="5" height="76" rx="3" fill="#3B82F6"/>
<text class="section" x="88" y="121" fill="#3B82F6">L1 输入与数据上下文</text>
<text class="small" x="88" y="143" >Gradio / CLI 接收请求，文档解析后形成 DataContextSummary</text>
<rect x="430" y="128" width="155" height="30" rx="8" fill="#3B82F6" fill-opacity="0.14" stroke="#3B82F6" stroke-opacity="0.62"/>
<text class="label" x="507.5" y="148.0" text-anchor="middle">main.py</text>
<line x1="585" y1="143.0" x2="605" y2="143.0" stroke="#3B82F6" stroke-width="2" marker-end="url(#arrow)"/>
<rect x="605" y="128" width="155" height="30" rx="8" fill="#3B82F6" fill-opacity="0.14" stroke="#3B82F6" stroke-opacity="0.62"/>
<text class="label" x="682.5" y="140.0" text-anchor="middle">document_in</text>
<text class="label" x="682.5" y="156.0" text-anchor="middle">gestion</text>
<line x1="760" y1="143.0" x2="780" y2="143.0" stroke="#3B82F6" stroke-width="2" marker-end="url(#arrow)"/>
<rect x="780" y="128" width="155" height="30" rx="8" fill="#3B82F6" fill-opacity="0.14" stroke="#3B82F6" stroke-opacity="0.62"/>
<text class="label" x="857.5" y="140.0" text-anchor="middle">data_contex</text>
<text class="label" x="857.5" y="156.0" text-anchor="middle">t</text>
<line x1="935" y1="143.0" x2="955" y2="143.0" stroke="#3B82F6" stroke-width="2" marker-end="url(#arrow)"/>
<rect x="955" y="128" width="155" height="30" rx="8" fill="#3B82F6" fill-opacity="0.14" stroke="#3B82F6" stroke-opacity="0.62"/>
<text class="label" x="1032.5" y="140.0" text-anchor="middle">RuntimeConf</text>
<text class="label" x="1032.5" y="156.0" text-anchor="middle">ig</text>
<line x1="640" y1="168" x2="640" y2="184" stroke="#64748B" stroke-width="2" stroke-dasharray="6 5" marker-end="url(#arrow)"/>
<rect x="70" y="188" width="1140" height="76" rx="14" fill="#151F33" stroke="#8B5CF6" stroke-opacity="0.45" filter="url(#shadow)"/>
<rect x="70" y="188" width="5" height="76" rx="3" fill="#8B5CF6"/>
<text class="section" x="88" y="217" fill="#8B5CF6">L2 检索与记忆系统</text>
<text class="small" x="88" y="239" >外部知识 RAG、成功/失败经验记忆与证据登记</text>
<rect x="430" y="224" width="155" height="30" rx="8" fill="#8B5CF6" fill-opacity="0.14" stroke="#8B5CF6" stroke-opacity="0.62"/>
<text class="label" x="507.5" y="244.0" text-anchor="middle">RAG Service</text>
<line x1="585" y1="239.0" x2="605" y2="239.0" stroke="#8B5CF6" stroke-width="2" marker-end="url(#arrow)"/>
<rect x="605" y="224" width="155" height="30" rx="8" fill="#8B5CF6" fill-opacity="0.14" stroke="#8B5CF6" stroke-opacity="0.62"/>
<text class="label" x="682.5" y="236.0" text-anchor="middle">Success</text>
<text class="label" x="682.5" y="252.0" text-anchor="middle">Memory</text>
<line x1="760" y1="239.0" x2="780" y2="239.0" stroke="#8B5CF6" stroke-width="2" marker-end="url(#arrow)"/>
<rect x="780" y="224" width="155" height="30" rx="8" fill="#8B5CF6" fill-opacity="0.14" stroke="#8B5CF6" stroke-opacity="0.62"/>
<text class="label" x="857.5" y="236.0" text-anchor="middle">Failure</text>
<text class="label" x="857.5" y="252.0" text-anchor="middle">Memory</text>
<line x1="935" y1="239.0" x2="955" y2="239.0" stroke="#8B5CF6" stroke-width="2" marker-end="url(#arrow)"/>
<rect x="955" y="224" width="155" height="30" rx="8" fill="#8B5CF6" fill-opacity="0.14" stroke="#8B5CF6" stroke-opacity="0.62"/>
<text class="label" x="1032.5" y="236.0" text-anchor="middle">Evidence</text>
<text class="label" x="1032.5" y="252.0" text-anchor="middle">Register</text>
<line x1="640" y1="264" x2="640" y2="280" stroke="#64748B" stroke-width="2" stroke-dasharray="6 5" marker-end="url(#arrow)"/>
<rect x="70" y="284" width="1140" height="76" rx="14" fill="#151F33" stroke="#F59E0B" stroke-opacity="0.45" filter="url(#shadow)"/>
<rect x="70" y="284" width="5" height="76" rx="3" fill="#F59E0B"/>
<text class="section" x="88" y="313" fill="#F59E0B">L3 分析执行层</text>
<text class="small" x="88" y="335" >LLM 生成结构化动作，工具执行并返回观察结果</text>
<rect x="430" y="320" width="155" height="30" rx="8" fill="#F59E0B" fill-opacity="0.14" stroke="#F59E0B" stroke-opacity="0.62"/>
<text class="label" x="507.5" y="340.0" text-anchor="middle">LLM JSON 动作</text>
<line x1="585" y1="335.0" x2="605" y2="335.0" stroke="#F59E0B" stroke-width="2" marker-end="url(#arrow)"/>
<rect x="605" y="320" width="155" height="30" rx="8" fill="#F59E0B" fill-opacity="0.14" stroke="#F59E0B" stroke-opacity="0.62"/>
<text class="label" x="682.5" y="332.0" text-anchor="middle">PythonInter</text>
<text class="label" x="682.5" y="348.0" text-anchor="middle">preterTool</text>
<line x1="760" y1="335.0" x2="780" y2="335.0" stroke="#F59E0B" stroke-width="2" marker-end="url(#arrow)"/>
<rect x="780" y="320" width="155" height="30" rx="8" fill="#F59E0B" fill-opacity="0.14" stroke="#F59E0B" stroke-opacity="0.62"/>
<text class="label" x="857.5" y="332.0" text-anchor="middle">TavilySearc</text>
<text class="label" x="857.5" y="348.0" text-anchor="middle">hTool</text>
<line x1="935" y1="335.0" x2="955" y2="335.0" stroke="#F59E0B" stroke-width="2" marker-end="url(#arrow)"/>
<rect x="955" y="320" width="155" height="30" rx="8" fill="#F59E0B" fill-opacity="0.14" stroke="#F59E0B" stroke-opacity="0.62"/>
<text class="label" x="1032.5" y="340.0" text-anchor="middle">Observation</text>
<line x1="640" y1="360" x2="640" y2="376" stroke="#64748B" stroke-width="2" stroke-dasharray="6 5" marker-end="url(#arrow)"/>
<rect x="70" y="380" width="1140" height="76" rx="14" fill="#151F33" stroke="#10B981" stroke-opacity="0.45" filter="url(#shadow)"/>
<rect x="70" y="380" width="5" height="76" rx="3" fill="#10B981"/>
<text class="section" x="88" y="409" fill="#10B981">L4 治理与审计层</text>
<text class="small" x="88" y="431" >AST 执行审计、报告契约检查、审稿循环</text>
<rect x="430" y="416" width="155" height="30" rx="8" fill="#10B981" fill-opacity="0.14" stroke="#10B981" stroke-opacity="0.62"/>
<text class="label" x="507.5" y="428.0" text-anchor="middle">execution_a</text>
<text class="label" x="507.5" y="444.0" text-anchor="middle">udit</text>
<line x1="585" y1="431.0" x2="605" y2="431.0" stroke="#10B981" stroke-width="2" marker-end="url(#arrow)"/>
<rect x="605" y="416" width="155" height="30" rx="8" fill="#10B981" fill-opacity="0.14" stroke="#10B981" stroke-opacity="0.62"/>
<text class="label" x="682.5" y="428.0" text-anchor="middle">report_cont</text>
<text class="label" x="682.5" y="444.0" text-anchor="middle">ract</text>
<line x1="760" y1="431.0" x2="780" y2="431.0" stroke="#10B981" stroke-width="2" marker-end="url(#arrow)"/>
<rect x="780" y="416" width="155" height="30" rx="8" fill="#10B981" fill-opacity="0.14" stroke="#10B981" stroke-opacity="0.62"/>
<text class="label" x="857.5" y="428.0" text-anchor="middle">review_serv</text>
<text class="label" x="857.5" y="444.0" text-anchor="middle">ice</text>
<line x1="935" y1="431.0" x2="955" y2="431.0" stroke="#10B981" stroke-width="2" marker-end="url(#arrow)"/>
<rect x="955" y="416" width="155" height="30" rx="8" fill="#10B981" fill-opacity="0.14" stroke="#10B981" stroke-opacity="0.62"/>
<text class="label" x="1032.5" y="428.0" text-anchor="middle">symbolic_ru</text>
<text class="label" x="1032.5" y="444.0" text-anchor="middle">les</text>
<line x1="640" y1="456" x2="640" y2="472" stroke="#64748B" stroke-width="2" stroke-dasharray="6 5" marker-end="url(#arrow)"/>
<rect x="70" y="476" width="1140" height="76" rx="14" fill="#151F33" stroke="#EF4444" stroke-opacity="0.45" filter="url(#shadow)"/>
<rect x="70" y="476" width="5" height="76" rx="3" fill="#EF4444"/>
<text class="section" x="88" y="505" fill="#EF4444">L5 评测与回归检测</text>
<text class="small" x="88" y="527" >10 个任务、baseline 对照、符号消融与失败分类</text>
<rect x="430" y="512" width="155" height="30" rx="8" fill="#EF4444" fill-opacity="0.14" stroke="#EF4444" stroke-opacity="0.62"/>
<text class="label" x="507.5" y="532.0" text-anchor="middle">eval tasks</text>
<line x1="585" y1="527.0" x2="605" y2="527.0" stroke="#EF4444" stroke-width="2" marker-end="url(#arrow)"/>
<rect x="605" y="512" width="155" height="30" rx="8" fill="#EF4444" fill-opacity="0.14" stroke="#EF4444" stroke-opacity="0.62"/>
<text class="label" x="682.5" y="524.0" text-anchor="middle">baseline</text>
<text class="label" x="682.5" y="540.0" text-anchor="middle">compare</text>
<line x1="760" y1="527.0" x2="780" y2="527.0" stroke="#EF4444" stroke-width="2" marker-end="url(#arrow)"/>
<rect x="780" y="512" width="155" height="30" rx="8" fill="#EF4444" fill-opacity="0.14" stroke="#EF4444" stroke-opacity="0.62"/>
<text class="label" x="857.5" y="532.0" text-anchor="middle">ablation</text>
<line x1="935" y1="527.0" x2="955" y2="527.0" stroke="#EF4444" stroke-width="2" marker-end="url(#arrow)"/>
<rect x="955" y="512" width="155" height="30" rx="8" fill="#EF4444" fill-opacity="0.14" stroke="#EF4444" stroke-opacity="0.62"/>
<text class="label" x="1032.5" y="524.0" text-anchor="middle">failure_tax</text>
<text class="label" x="1032.5" y="540.0" text-anchor="middle">onomy</text>
<line x1="640" y1="552" x2="640" y2="568" stroke="#64748B" stroke-width="2" stroke-dasharray="6 5" marker-end="url(#arrow)"/>
<rect x="70" y="572" width="1140" height="76" rx="14" fill="#151F33" stroke="#06B6D4" stroke-opacity="0.45" filter="url(#shadow)"/>
<rect x="70" y="572" width="5" height="76" rx="3" fill="#06B6D4"/>
<text class="section" x="88" y="601" fill="#06B6D4">L6 展示与历史问答</text>
<text class="small" x="88" y="623" >Web 工作台、报告渲染、历史 QA 与 artifact service</text>
<rect x="430" y="608" width="155" height="30" rx="8" fill="#06B6D4" fill-opacity="0.14" stroke="#06B6D4" stroke-opacity="0.62"/>
<text class="label" x="507.5" y="628.0" text-anchor="middle">Gradio Web</text>
<line x1="585" y1="623.0" x2="605" y2="623.0" stroke="#06B6D4" stroke-width="2" marker-end="url(#arrow)"/>
<rect x="605" y="608" width="155" height="30" rx="8" fill="#06B6D4" fill-opacity="0.14" stroke="#06B6D4" stroke-opacity="0.62"/>
<text class="label" x="682.5" y="628.0" text-anchor="middle">history_qa</text>
<line x1="760" y1="623.0" x2="780" y2="623.0" stroke="#06B6D4" stroke-width="2" marker-end="url(#arrow)"/>
<rect x="780" y="608" width="155" height="30" rx="8" fill="#06B6D4" fill-opacity="0.14" stroke="#06B6D4" stroke-opacity="0.62"/>
<text class="label" x="857.5" y="620.0" text-anchor="middle">report</text>
<text class="label" x="857.5" y="636.0" text-anchor="middle">render</text>
<line x1="935" y1="623.0" x2="955" y2="623.0" stroke="#06B6D4" stroke-width="2" marker-end="url(#arrow)"/>
<rect x="955" y="608" width="155" height="30" rx="8" fill="#06B6D4" fill-opacity="0.14" stroke="#06B6D4" stroke-opacity="0.62"/>
<text class="label" x="1032.5" y="628.0" text-anchor="middle">artifacts</text>
<rect x="380" y="670" width="120" height="28" rx="8" fill="#3B82F6" fill-opacity="0.14" stroke="#3B82F6" stroke-opacity="0.62"/>
<text class="label" x="440.0" y="689.0" text-anchor="middle">LLM</text>
<rect x="525" y="670" width="150" height="28" rx="8" fill="#10B981" fill-opacity="0.14" stroke="#10B981" stroke-opacity="0.62"/>
<text class="label" x="600.0" y="681.0" text-anchor="middle">Symbolic</text>
<text class="label" x="600.0" y="697.0" text-anchor="middle">Rule</text>
<rect x="700" y="670" width="140" height="28" rx="8" fill="#8B5CF6" fill-opacity="0.14" stroke="#8B5CF6" stroke-opacity="0.62"/>
<text class="label" x="770.0" y="689.0" text-anchor="middle">Data Store</text>
<rect x="865" y="670" width="150" height="28" rx="8" fill="#F59E0B" fill-opacity="0.14" stroke="#F59E0B" stroke-opacity="0.62"/>
<text class="label" x="940.0" y="681.0" text-anchor="middle">Tool /</text>
<text class="label" x="940.0" y="697.0" text-anchor="middle">Executor</text>
</svg>