<svg xmlns="http://www.w3.org/2000/svg" viewBox="0 0 1280 720" font-family="'Segoe UI','Microsoft YaHei',Arial,sans-serif">
  <defs>
    <linearGradient id="bg" x1="0" y1="0" x2="0" y2="1"><stop offset="0" stop-color="#0B1220"/><stop offset="1" stop-color="#111C2F"/></linearGradient>
    <filter id="shadow" x="-8%" y="-8%" width="116%" height="116%"><feDropShadow dx="0" dy="8" stdDeviation="10" flood-color="#020617" flood-opacity="0.22"/></filter>
    <marker id="arrow" viewBox="0 0 10 10" refX="9" refY="5" markerWidth="8" markerHeight="8" orient="auto"><path d="M0,0 L10,5 L0,10 z" fill="#94A3B8"/></marker>
    <marker id="arrowBlue" viewBox="0 0 10 10" refX="9" refY="5" markerWidth="8" markerHeight="8" orient="auto"><path d="M0,0 L10,5 L0,10 z" fill="#3B82F6"/></marker>
    <marker id="arrowGreen" viewBox="0 0 10 10" refX="9" refY="5" markerWidth="8" markerHeight="8" orient="auto"><path d="M0,0 L10,5 L0,10 z" fill="#10B981"/></marker>
    <marker id="arrowRed" viewBox="0 0 10 10" refX="9" refY="5" markerWidth="8" markerHeight="8" orient="auto"><path d="M0,0 L10,5 L0,10 z" fill="#EF4444"/></marker>
    <style>
      .title{fill:#F8FAFC;font-size:30px;font-weight:800;letter-spacing:0}
      .sub{fill:#A8B3C7;font-size:14px}
      .section{fill:#F8FAFC;font-size:16px;font-weight:800}
      .label{fill:#F8FAFC;font-size:14px;font-weight:750}
      .small{fill:#B9C5D8;font-size:12px}
      .tiny{fill:#9DAAC0;font-size:11px}
      .code{fill:#C7D2FE;font-size:11px;font-family:'Cascadia Mono','Consolas',monospace}
    </style>
  </defs>
  <rect width="1280" height="720" rx="18" fill="url(#bg)"/>
  <text class="title" x="640" y="44" text-anchor="middle">记忆子系统架构</text>
  <text class="sub" x="640" y="70" text-anchor="middle">成功经验、失败教训与外部知识分层沉淀</text>
<rect x="70" y="110" width="345" height="230" rx="14" fill="#142238" stroke="#10B981" stroke-opacity="0.45" filter="url(#shadow)"/>
<rect x="70" y="110" width="5" height="230" rx="3" fill="#10B981"/>
<text class="section" x="88" y="139" fill="#10B981">成功经验记忆</text>
<text class="small" x="88" y="161" >SuccessMemoryService</text>
<rect x="105" y="165" width="275" height="30" rx="8" fill="#10B981" fill-opacity="0.14" stroke="#10B981" stroke-opacity="0.62"/>
<text class="label" x="242.5" y="177.0" text-anchor="middle">写入：accepted run -&gt;</text>
<text class="label" x="242.5" y="193.0" text-anchor="middle">ChromaDB</text>
<rect x="105" y="205" width="275" height="30" rx="8" fill="#10B981" fill-opacity="0.14" stroke="#10B981" stroke-opacity="0.62"/>
<text class="label" x="242.5" y="225.0" text-anchor="middle">读取：相似任务 Top-K 经验</text>
<rect x="105" y="245" width="275" height="30" rx="8" fill="#10B981" fill-opacity="0.14" stroke="#10B981" stroke-opacity="0.62"/>
<text class="label" x="242.5" y="257.0" text-anchor="middle">结构：memory_type /</text>
<text class="label" x="242.5" y="273.0" text-anchor="middle">scope / key</text>
<rect x="105" y="285" width="275" height="30" rx="8" fill="#10B981" fill-opacity="0.14" stroke="#10B981" stroke-opacity="0.62"/>
<text class="label" x="242.5" y="305.0" text-anchor="middle">作用：复用可靠分析套路</text>
<rect x="475" y="110" width="345" height="230" rx="14" fill="#142238" stroke="#EF4444" stroke-opacity="0.45" filter="url(#shadow)"/>
<rect x="475" y="110" width="5" height="230" rx="3" fill="#EF4444"/>
<text class="section" x="493" y="139" fill="#EF4444">失败教训记忆</text>
<text class="small" x="493" y="161" >FailureMemoryService</text>
<rect x="510" y="165" width="275" height="30" rx="8" fill="#EF4444" fill-opacity="0.14" stroke="#EF4444" stroke-opacity="0.62"/>
<text class="label" x="647.5" y="177.0" text-anchor="middle">写入：failed run -&gt;</text>
<text class="label" x="647.5" y="193.0" text-anchor="middle">ChromaDB</text>
<rect x="510" y="205" width="275" height="30" rx="8" fill="#EF4444" fill-opacity="0.14" stroke="#EF4444" stroke-opacity="0.62"/>
<text class="label" x="647.5" y="225.0" text-anchor="middle">读取：注入 AVOID 清单</text>
<rect x="510" y="245" width="275" height="30" rx="8" fill="#EF4444" fill-opacity="0.14" stroke="#EF4444" stroke-opacity="0.62"/>
<text class="label" x="647.5" y="257.0" text-anchor="middle">结构：trigger_stage /</text>
<text class="label" x="647.5" y="273.0" text-anchor="middle">audit_status</text>
<rect x="510" y="285" width="275" height="30" rx="8" fill="#EF4444" fill-opacity="0.14" stroke="#EF4444" stroke-opacity="0.62"/>
<text class="label" x="647.5" y="305.0" text-anchor="middle">作用：避免重复犯错</text>
<rect x="880" y="110" width="345" height="230" rx="14" fill="#142238" stroke="#8B5CF6" stroke-opacity="0.45" filter="url(#shadow)"/>
<rect x="880" y="110" width="5" height="230" rx="3" fill="#8B5CF6"/>
<text class="section" x="898" y="139" fill="#8B5CF6">外部知识记忆</text>
<text class="small" x="898" y="161" >RAG Service</text>
<rect x="915" y="165" width="275" height="30" rx="8" fill="#8B5CF6" fill-opacity="0.14" stroke="#8B5CF6" stroke-opacity="0.62"/>
<text class="label" x="1052.5" y="185.0" text-anchor="middle">索引：上传文件与分块</text>
<rect x="915" y="205" width="275" height="30" rx="8" fill="#8B5CF6" fill-opacity="0.14" stroke="#8B5CF6" stroke-opacity="0.62"/>
<text class="label" x="1052.5" y="217.0" text-anchor="middle">检索：query_builder +</text>
<text class="label" x="1052.5" y="233.0" text-anchor="middle">reranker</text>
<rect x="915" y="245" width="275" height="30" rx="8" fill="#8B5CF6" fill-opacity="0.14" stroke="#8B5CF6" stroke-opacity="0.62"/>
<text class="label" x="1052.5" y="257.0" text-anchor="middle">结构：chunk / evidence /</text>
<text class="label" x="1052.5" y="273.0" text-anchor="middle">citation</text>
<rect x="915" y="285" width="275" height="30" rx="8" fill="#8B5CF6" fill-opacity="0.14" stroke="#8B5CF6" stroke-opacity="0.62"/>
<text class="label" x="1052.5" y="305.0" text-anchor="middle">作用：给分析提供依据</text>
<rect x="70" y="380" width="1140" height="106" rx="14" fill="#142238" stroke="#3B82F6" stroke-opacity="0.45" filter="url(#shadow)"/>
<rect x="70" y="380" width="5" height="106" rx="3" fill="#3B82F6"/>
<text class="section" x="88" y="409" fill="#3B82F6">知识上下文组装：KnowledgeContextProvider.collect()</text>
<text class="small" x="88" y="431" >把用户意图、成功经验、失败约束、RAG 证据统一注入分析 prompt</text>
<rect x="120" y="430" width="170" height="36" rx="8" fill="#3B82F6" fill-opacity="0.14" stroke="#3B82F6" stroke-opacity="0.62"/>
<text class="label" x="205.0" y="453.0" text-anchor="middle">成功经验</text>
<rect x="335" y="430" width="170" height="36" rx="8" fill="#EF4444" fill-opacity="0.14" stroke="#EF4444" stroke-opacity="0.62"/>
<text class="label" x="420.0" y="453.0" text-anchor="middle">失败教训</text>
<rect x="550" y="430" width="170" height="36" rx="8" fill="#8B5CF6" fill-opacity="0.14" stroke="#8B5CF6" stroke-opacity="0.62"/>
<text class="label" x="635.0" y="453.0" text-anchor="middle">RAG 引用</text>
<rect x="765" y="430" width="170" height="36" rx="8" fill="#3B82F6" fill-opacity="0.14" stroke="#3B82F6" stroke-opacity="0.62"/>
<text class="label" x="850.0" y="453.0" text-anchor="middle">用户意图</text>
<rect x="980" y="430" width="170" height="36" rx="8" fill="#F59E0B" fill-opacity="0.14" stroke="#F59E0B" stroke-opacity="0.62"/>
<text class="label" x="1065.0" y="453.0" text-anchor="middle">证据寄存</text>
<line x1="240" y1="340" x2="240" y2="430" stroke="#10B981" stroke-width="2" marker-end="url(#arrowGreen)"/>
<line x1="645" y1="340" x2="645" y2="430" stroke="#EF4444" stroke-width="2" marker-end="url(#arrowRed)"/>
<line x1="1050" y1="340" x2="1050" y2="430" stroke="#8B5CF6" stroke-width="2" marker-end="url(#arrow)"/>
<rect x="70" y="530" width="520" height="130" rx="14" fill="#172236" stroke="#334155" stroke-opacity="0.45" filter="url(#shadow)"/>
<rect x="70" y="530" width="5" height="130" rx="3" fill="#334155"/>
<text class="section" x="88" y="559" fill="#334155">作用域隔离 Scope</text>
<text class="small" x="95" y="562" >显式作用域：用户指定 scope 标签</text>
<text class="small" x="95" y="584" >会话作用域：当前运行 session id</text>
<text class="small" x="95" y="606" >文件作用域：数据文件名 stem 归一化</text>
<text class="small" x="95" y="628" >目的：不同项目的记忆不互相污染</text>
<rect x="640" y="530" width="570" height="130" rx="14" fill="#172236" stroke="#334155" stroke-opacity="0.45" filter="url(#shadow)"/>
<rect x="640" y="530" width="5" height="130" rx="3" fill="#334155"/>
<text class="section" x="658" y="559" fill="#334155">存储后端</text>
<rect x="665" y="560" width="235" height="22" rx="8" fill="#8B5CF6" fill-opacity="0.14" stroke="#8B5CF6" stroke-opacity="0.62"/>
<text class="label" x="782.5" y="568.0" text-anchor="middle">ChromaPersistentCl</text>
<text class="label" x="782.5" y="584.0" text-anchor="middle">ient</text>
<rect x="930" y="560" width="235" height="22" rx="8" fill="#10B981" fill-opacity="0.14" stroke="#10B981" stroke-opacity="0.62"/>
<text class="label" x="1047.5" y="576.0" text-anchor="middle">memory/service.py</text>
<rect x="665" y="588" width="235" height="22" rx="8" fill="#10B981" fill-opacity="0.14" stroke="#10B981" stroke-opacity="0.62"/>
<text class="label" x="782.5" y="596.0" text-anchor="middle">memory/extractor.p</text>
<text class="label" x="782.5" y="612.0" text-anchor="middle">y</text>
<rect x="930" y="588" width="235" height="22" rx="8" fill="#10B981" fill-opacity="0.14" stroke="#10B981" stroke-opacity="0.62"/>
<text class="label" x="1047.5" y="604.0" text-anchor="middle">memory/models.py</text>
<rect x="665" y="616" width="235" height="22" rx="8" fill="#10B981" fill-opacity="0.14" stroke="#10B981" stroke-opacity="0.62"/>
<text class="label" x="782.5" y="632.0" text-anchor="middle">memory/scope.py</text>
</svg>