<svg xmlns="http://www.w3.org/2000/svg" viewBox="0 0 1280 720" font-family="'Segoe UI','Microsoft YaHei',Arial,sans-serif">
  <defs>
    <linearGradient id="bg" x1="0" y1="0" x2="0" y2="1"><stop offset="0" stop-color="#0B1220"/><stop offset="1" stop-color="#111C2F"/></linearGradient>
    <filter id="shadow" x="-8%" y="-8%" width="116%" height="116%"><feDropShadow dx="0" dy="8" stdDeviation="10" flood-color="#020617" flood-opacity="0.22"/></filter>
    <marker id="arrow" viewBox="0 0 10 10" refX="9" refY="5" markerWidth="8" markerHeight="8" orient="auto"><path d="M0,0 L10,5 L0,10 z" fill="#94A3B8"/></marker>
    <marker id="arrowBlue" viewBox="0 0 10 10" refX="9" refY="5" markerWidth="8" markerHeight="8" orient="auto"><path d="M0,0 L10,5 L0,10 z" fill="#3B82F6"/></marker>
    <marker id="arrowGreen" viewBox="0 0 10 10" refX="9" refY="5" markerWidth="8" markerHeight="8" orient="auto"><path d="M0,0 L10,5 L0,10 z" fill="#10B981"/></marker>
    <marker id="arrowRed" viewBox="0 0 10 10" refX="9" refY="5" markerWidth="8" markerHeight="8" orient="auto"><path d="M0,0 L10,5 L0,10 z" fill="#EF4444"/></marker>
    <style>
      .title{fill:#F8FAFC;font-size:30px;font-weight:800;letter-spacing:0}
      .sub{fill:#A8B3C7;font-size:14px}
      .section{fill:#F8FAFC;font-size:16px;font-weight:800}
      .label{fill:#F8FAFC;font-size:14px;font-weight:750}
      .small{fill:#B9C5D8;font-size:12px}
      .tiny{fill:#9DAAC0;font-size:11px}
      .code{fill:#C7D2FE;font-size:11px;font-family:'Cascadia Mono','Consolas',monospace}
    </style>
  </defs>
  <rect width="1280" height="720" rx="18" fill="url(#bg)"/>
  <text class="title" x="640" y="44" text-anchor="middle">评测框架与消融实验</text>
  <text class="sub" x="640" y="70" text-anchor="middle">10 个任务基线评测、回归检测、符号消融与失败分类</text>
<rect x="65" y="100" width="720" height="300" rx="14" fill="#172236" stroke="#334155" stroke-opacity="0.45" filter="url(#shadow)"/>
<rect x="65" y="100" width="5" height="300" rx="3" fill="#334155"/>
<text class="section" x="83" y="129" fill="#334155">10 个评测任务（eval/tasks/*.yaml）</text>
<rect x="90" y="136" width="670" height="24" rx="4" fill="#334155"/>
<text class="tiny" x="115" y="153" >任务</text>
<text class="tiny" x="358" y="153" >场景</text>
<text class="tiny" x="590" y="153" >常见失败分类</text>
<rect x="90" y="164" width="670" height="19" rx="3" fill="#1B2A40"/>
<text class="code" x="108" y="178" >before_after_paired_measure</text>
<text class="tiny" x="350" y="178" >配对前后生物标志物</text>
<text class="tiny" x="590" y="178" fill="#FCA5A5">review_rejection</text>
<rect x="90" y="185" width="670" height="19" rx="3" fill="#172338"/>
<text class="code" x="108" y="199" >two_group_small_sample</text>
<text class="tiny" x="350" y="199" >小样本组间比较</text>
<text class="tiny" x="590" y="199" fill="#FCA5A5">review_rejection</text>
<rect x="90" y="206" width="670" height="19" rx="3" fill="#1B2A40"/>
<text class="code" x="108" y="220" >multi_group_with_variance_shift</text>
<text class="tiny" x="350" y="220" >3 组剂量对比</text>
<text class="tiny" x="590" y="220" fill="#FCA5A5">figure_interpretation_failure</text>
<rect x="90" y="227" width="670" height="19" rx="3" fill="#172338"/>
<text class="code" x="108" y="241" >missing_values_by_group</text>
<text class="tiny" x="350" y="241" >分组缺失值分析</text>
<text class="tiny" x="590" y="241" fill="#FCA5A5">cleaning_contract_failure</text>
<rect x="90" y="248" width="670" height="19" rx="3" fill="#1B2A40"/>
<text class="code" x="108" y="262" >time_series_trend_clean</text>
<text class="tiny" x="350" y="262" >时间序列趋势</text>
<text class="tiny" x="590" y="262" fill="#FCA5A5">figure_interpretation_failure</text>
<rect x="90" y="269" width="670" height="19" rx="3" fill="#172338"/>
<text class="code" x="108" y="283" >outlier_sensitive_measurement</text>
<text class="tiny" x="350" y="283" >异常值检测</text>
<text class="tiny" x="590" y="283" fill="#FCA5A5">figure_interpretation_failure</text>
<rect x="90" y="290" width="670" height="19" rx="3" fill="#1B2A40"/>
<text class="code" x="108" y="304" >mixed_units_and_dirty_headers</text>
<text class="tiny" x="350" y="304" >脏表头/混合单位</text>
<text class="tiny" x="590" y="304" fill="#FCA5A5">cleaning_contract_failure</text>
<rect x="90" y="311" width="670" height="19" rx="3" fill="#172338"/>
<text class="code" x="108" y="325" >correlation_without_causality</text>
<text class="tiny" x="350" y="325" >相关性分析</text>
<text class="tiny" x="590" y="325" fill="#FCA5A5">review_rejection</text>
<rect x="90" y="332" width="670" height="19" rx="3" fill="#1B2A40"/>
<text class="code" x="108" y="346" >reference_guideline_lookup</text>
<text class="tiny" x="350" y="346" >RAG 引导解读</text>
<text class="tiny" x="590" y="346" fill="#FCA5A5">citation_evidence_failure</text>
<rect x="90" y="353" width="670" height="19" rx="3" fill="#172338"/>
<text class="code" x="108" y="367" >memory_constrained_repeat_task</text>
<text class="tiny" x="350" y="367" >记忆约束重复任务</text>
<text class="tiny" x="590" y="367" fill="#FCA5A5">review_rejection</text>
<rect x="820" y="100" width="390" height="300" rx="14" fill="#241928" stroke="#EF4444" stroke-opacity="0.45" filter="url(#shadow)"/>
<rect x="820" y="100" width="5" height="300" rx="3" fill="#EF4444"/>
<text class="section" x="838" y="129" fill="#EF4444">评测流程</text>
<rect x="865" y="140" width="300" height="28" rx="8" fill="#EF4444" fill-opacity="0.14" stroke="#EF4444" stroke-opacity="0.62"/>
<text class="label" x="1015.0" y="151.0" text-anchor="middle">run_eval.py：固定顺序执行 10</text>
<text class="label" x="1015.0" y="167.0" text-anchor="middle">个任务</text>
<rect x="865" y="178" width="300" height="28" rx="8" fill="#EF4444" fill-opacity="0.14" stroke="#EF4444" stroke-opacity="0.62"/>
<text class="label" x="1015.0" y="197.0" text-anchor="middle">per-task summary：聚合运行报告</text>
<rect x="865" y="216" width="300" height="28" rx="8" fill="#10B981" fill-opacity="0.14" stroke="#10B981" stroke-opacity="0.62"/>
<text class="label" x="1015.0" y="227.0" text-anchor="middle">baseline</text>
<text class="label" x="1015.0" y="243.0" text-anchor="middle">snapshot：seed_v5</text>
<rect x="865" y="254" width="300" height="28" rx="8" fill="#EF4444" fill-opacity="0.14" stroke="#EF4444" stroke-opacity="0.62"/>
<text class="label" x="1015.0" y="265.0" text-anchor="middle">compare_baseline.py：回归检</text>
<text class="label" x="1015.0" y="281.0" text-anchor="middle">测</text>
<rect x="865" y="292" width="300" height="28" rx="8" fill="#EF4444" fill-opacity="0.14" stroke="#EF4444" stroke-opacity="0.62"/>
<text class="label" x="1015.0" y="303.0" text-anchor="middle">regression_rules.json：阈</text>
<text class="label" x="1015.0" y="319.0" text-anchor="middle">值检测</text>
<rect x="865" y="330" width="300" height="28" rx="8" fill="#F59E0B" fill-opacity="0.14" stroke="#F59E0B" stroke-opacity="0.62"/>
<text class="label" x="1015.0" y="349.0" text-anchor="middle">failure_taxonomy：失败分类</text>
<rect x="65" y="432" width="1145" height="116" rx="14" fill="#1C1F3A" stroke="#8B5CF6" stroke-opacity="0.45" filter="url(#shadow)"/>
<rect x="65" y="432" width="5" height="116" rx="3" fill="#8B5CF6"/>
<text class="section" x="83" y="461" fill="#8B5CF6">符号消融实验 Symbolic Ablation</text>
<text class="small" x="83" y="483" >full / prompt_only / none 三种配置对比，衡量符号规则的增量贡献</text>
<rect x="110" y="485" width="320" height="42" rx="8" fill="#10B981" fill-opacity="0.14" stroke="#10B981" stroke-opacity="0.62"/>
<text class="label" x="270.0" y="503.0" text-anchor="middle">full：prompt + checker +</text>
<text class="label" x="270.0" y="519.0" text-anchor="middle">blocking</text>
<rect x="480" y="485" width="320" height="42" rx="8" fill="#F59E0B" fill-opacity="0.14" stroke="#F59E0B" stroke-opacity="0.62"/>
<text class="label" x="640.0" y="511.0" text-anchor="middle">prompt_only：仅提示，无硬约束</text>
<rect x="850" y="485" width="320" height="42" rx="8" fill="#EF4444" fill-opacity="0.14" stroke="#EF4444" stroke-opacity="0.62"/>
<text class="label" x="1010.0" y="511.0" text-anchor="middle">none：仅 JSON / 工具协议</text>
<rect x="65" y="585" width="1145" height="86" rx="14" fill="#172236" stroke="#334155" stroke-opacity="0.45" filter="url(#shadow)"/>
<rect x="65" y="585" width="5" height="86" rx="3" fill="#334155"/>
<text class="section" x="83" y="614" fill="#334155">消融分析流程</text>
<rect x="120" y="626" width="230" height="34" rx="8" fill="#3B82F6" fill-opacity="0.14" stroke="#3B82F6" stroke-opacity="0.62"/>
<text class="label" x="235.0" y="640.0" text-anchor="middle">run_symbolic_abla</text>
<text class="label" x="235.0" y="656.0" text-anchor="middle">tion.py</text>
<line x1="350" y1="643.0" x2="395" y2="643.0" stroke="#3B82F6" stroke-width="2" marker-end="url(#arrow)"/>
<rect x="395" y="626" width="230" height="34" rx="8" fill="#3B82F6" fill-opacity="0.14" stroke="#3B82F6" stroke-opacity="0.62"/>
<text class="label" x="510.0" y="648.0" text-anchor="middle">构建配对比较</text>
<line x1="625" y1="643.0" x2="670" y2="643.0" stroke="#3B82F6" stroke-width="2" marker-end="url(#arrow)"/>
<rect x="670" y="626" width="230" height="34" rx="8" fill="#3B82F6" fill-opacity="0.14" stroke="#3B82F6" stroke-opacity="0.62"/>
<text class="label" x="785.0" y="648.0" text-anchor="middle">判定证据等级</text>
<line x1="900" y1="643.0" x2="945" y2="643.0" stroke="#3B82F6" stroke-width="2" marker-end="url(#arrow)"/>
<rect x="945" y="626" width="230" height="34" rx="8" fill="#3B82F6" fill-opacity="0.14" stroke="#3B82F6" stroke-opacity="0.62"/>
<text class="label" x="1060.0" y="640.0" text-anchor="middle">输出 Markdown +</text>
<text class="label" x="1060.0" y="656.0" text-anchor="middle">JSON</text>
</svg>